<svg width="50" height="50" viewBox="0 0 50 50" fill="none" xmlns="http://www.w3.org/2000/svg">
<g id="Frame 18">
<path id="Vector" d="M38.7727 50H42.5455C44.4545 50 46.0227 48.5227 46.25 46.6591L50 9.20455H38.6364V0H34.1591V9.20455H22.8636L23.5455 14.5227C27.4318 15.5909 31.0682 17.5227 33.25 19.6591C36.5227 22.8864 38.7727 26.2273 38.7727 31.6818V50ZM0 47.7273V45.4545H34.1591V47.7273C34.1591 48.9545 33.1364 50 31.8182 50H2.27273C1.02273 50 0 48.9545 0 47.7273ZM34.1591 31.8182C34.1591 13.6364 0 13.6364 0 31.8182H34.1591ZM0 36.3636H34.0909V40.9091H0V36.3636Z" fill="#DD812C"/>
</g>
</svg>
