<svg width="30" height="50" viewBox="0 0 30 50" fill="none" xmlns="http://www.w3.org/2000/svg">
<g id="fluent:drink-bottle-32-filled">
<path id="Vector" d="M17.1906 7.03125C17.1906 5.99525 17.6022 5.00168 18.3348 4.26911C19.0673 3.53655 20.0609 3.125 21.0969 3.125H28.9094C29.825 3.12488 30.7116 3.44639 31.4142 4.03339C32.1169 4.6204 32.5911 5.43559 32.7539 6.3366C32.9167 7.23762 32.7579 8.1672 32.3051 8.96301C31.8523 9.75882 31.1343 10.3703 30.2766 10.6906C30.5891 12.2766 31.6516 13.5875 33.2578 15.1781C35.082 16.5 36.5615 18.2413 37.5715 20.255C38.5815 22.2687 39.0924 24.4958 39.061 26.7484V26.7906L39.0625 26.875V40.625C39.0624 41.8024 38.7296 42.9559 38.1026 43.9525C37.4756 44.9491 36.5798 45.7483 35.5185 46.2581C34.4571 46.7678 33.2734 46.9674 32.1035 46.8339C30.9337 46.7003 29.8254 46.239 28.9063 45.5031C27.7988 46.3927 26.4205 46.8768 25 46.875C23.5795 46.8768 22.2012 46.3927 21.0938 45.5031C20.1746 46.239 19.0663 46.7003 17.8965 46.8339C16.7267 46.9674 15.5429 46.7678 14.4815 46.2581C13.4202 45.7483 12.5244 44.9491 11.8974 43.9525C11.2704 42.9559 10.9377 41.8024 10.9375 40.625V26.5609C10.9331 23.1842 12.1482 19.9194 14.3594 17.3672C14.8913 16.7514 15.4758 16.1831 16.1063 15.6687C18.0047 13.8313 19.2688 12.4187 19.5984 10.6406C18.8853 10.3444 18.2759 9.8434 17.8473 9.20098C17.4188 8.55855 17.1902 7.80351 17.1906 7.03125ZM21.0969 6.25C20.8897 6.25 20.691 6.33231 20.5445 6.47882C20.3979 6.62534 20.3156 6.82405 20.3156 7.03125C20.3156 7.23845 20.3979 7.43716 20.5445 7.58368C20.691 7.73019 20.8897 7.8125 21.0969 7.8125H28.9094C29.1166 7.8125 29.3153 7.73019 29.4618 7.58368C29.6083 7.43716 29.6906 7.23845 29.6906 7.03125C29.6906 6.82405 29.6083 6.62534 29.4618 6.47882C29.3153 6.33231 29.1166 6.25 28.9094 6.25H21.0969ZM19.0203 17.1875H30.8469C29.2531 15.5906 27.6797 13.7469 27.2031 11.25H22.6625C22.1875 13.7359 20.6203 15.5859 19.0203 17.1875ZM14.0625 40.625C14.0625 41.2964 14.2788 41.9499 14.6792 42.4888C15.0797 43.0277 15.643 43.4233 16.2859 43.617C16.9287 43.8108 17.6169 43.7923 18.2484 43.5644C18.8799 43.3364 19.4212 42.9112 19.7922 42.3516C19.9348 42.1369 20.1282 41.9608 20.3553 41.8391C20.5824 41.7173 20.8361 41.6536 21.0938 41.6536C21.3514 41.6536 21.6051 41.7173 21.8322 41.8391C22.0593 41.9608 22.2528 42.1369 22.3953 42.3516C22.6798 42.7822 23.0667 43.1356 23.5212 43.38C23.9758 43.6245 24.4839 43.7525 25 43.7525C25.5161 43.7525 26.0242 43.6245 26.4788 43.38C26.9333 43.1356 27.3202 42.7822 27.6047 42.3516C27.7473 42.1369 27.9407 41.9608 28.1678 41.8391C28.3949 41.7173 28.6486 41.6536 28.9063 41.6536C29.1639 41.6536 29.4176 41.7173 29.6447 41.8391C29.8718 41.9608 30.0653 42.1369 30.2078 42.3516C30.5788 42.9112 31.1201 43.3364 31.7516 43.5644C32.3832 43.7923 33.0713 43.8108 33.7141 43.617C34.357 43.4233 34.9203 43.0277 35.3208 42.4888C35.7213 41.9499 35.9375 41.2964 35.9375 40.625V37.5H14.0625V40.625Z" fill="#DD812C"/>
</g>
</svg>
