<svg width="28" height="28" viewBox="0 0 28 28" fill="none" xmlns="http://www.w3.org/2000/svg">
<g id="octicon:home-24">
<path id="Vector" d="M12.8683 3.02172C13.1846 2.75391 13.5856 2.60693 14 2.60693C14.4144 2.60693 14.8154 2.75391 15.1317 3.02172L23.8817 10.4452C24.0754 10.6095 24.2311 10.814 24.3379 11.0444C24.4446 11.2749 24.5 11.5259 24.5 11.7799V22.7501C24.5 23.2142 24.3156 23.6593 23.9874 23.9875C23.6592 24.3157 23.2141 24.5001 22.75 24.5001H16.0417C15.8096 24.5001 15.587 24.4079 15.4229 24.2438C15.2589 24.0797 15.1667 23.8571 15.1667 23.6251V16.3334H12.8333V23.6251C12.8333 23.8571 12.7411 24.0797 12.5771 24.2438C12.413 24.4079 12.1904 24.5001 11.9583 24.5001H5.25C4.78587 24.5001 4.34075 24.3157 4.01256 23.9875C3.68437 23.6593 3.5 23.2142 3.5 22.7501V11.7799C3.5 11.2666 3.72633 10.7777 4.11833 10.4452L12.8683 3.02172ZM14 4.35639L5.25 11.7799V22.7501H11.0833V15.4584C11.0833 15.2263 11.1755 15.0038 11.3396 14.8397C11.5037 14.6756 11.7263 14.5834 11.9583 14.5834H16.0417C16.2737 14.5834 16.4963 14.6756 16.6604 14.8397C16.8245 15.0038 16.9167 15.2263 16.9167 15.4584V22.7501H22.75V11.7799L14 4.35639Z" fill="#DD812C"/>
</g>
</svg>
