<svg width="50" height="50" viewBox="0 0 50 50" fill="none" xmlns="http://www.w3.org/2000/svg">
<g id="ion:restaurant">
<path id="Vector" d="M34.919 21.8692C35.9456 21.872 36.9626 21.6711 37.911 21.2782C38.8594 20.8853 39.7205 20.3081 40.4444 19.5801L47.9639 12.0655C48.5586 11.4707 48.6133 10.503 48.0469 9.87893C47.9047 9.72215 47.7322 9.5959 47.5397 9.50783C47.3472 9.41975 47.1389 9.3717 46.9273 9.36659C46.7157 9.36148 46.5053 9.39941 46.3088 9.47808C46.1123 9.55675 45.9338 9.67452 45.7842 9.82424L39.0821 16.5215C38.857 16.7463 38.552 16.8725 38.2339 16.8725C37.9159 16.8725 37.6108 16.7463 37.3858 16.5215C36.918 16.0547 36.9434 15.2656 37.4102 14.7989L44.083 8.126C44.2326 7.97641 44.3503 7.79801 44.4288 7.60161C44.5074 7.40521 44.5453 7.1949 44.5402 6.98343C44.5351 6.77195 44.4871 6.56372 44.3991 6.37134C44.3111 6.17897 44.185 6.00646 44.0284 5.86428C43.7456 5.6078 43.3769 5.46667 42.9951 5.46877C42.5625 5.46907 42.1476 5.64119 41.8418 5.94729L35.1748 12.6133C34.9498 12.8381 34.6447 12.9643 34.3267 12.9643C34.0086 12.9643 33.7036 12.8381 33.4785 12.6133C33.0118 12.1465 33.0362 11.3574 33.503 10.8906L40.1758 4.21975C40.3254 4.07016 40.443 3.89176 40.5216 3.69536C40.6002 3.49896 40.6381 3.28865 40.633 3.07718C40.6278 2.8657 40.5798 2.65747 40.4919 2.46509C40.4039 2.27272 40.2778 2.10021 40.1211 1.95803C39.8384 1.70155 39.4697 1.56042 39.0879 1.56252C38.6553 1.56304 38.2405 1.73512 37.9346 2.04104L30.42 9.55569C29.6919 10.2797 29.1147 11.1409 28.7217 12.0895C28.3288 13.0381 28.128 14.0553 28.1309 15.0821V15.8858C28.1311 16.0912 28.0907 16.2947 28.0121 16.4846C27.9335 16.6745 27.8182 16.847 27.6729 16.9922L24.1953 20.4707C24.1591 20.507 24.116 20.5359 24.0686 20.5555C24.0211 20.5752 23.9703 20.5853 23.919 20.5853C23.8676 20.5853 23.8168 20.5752 23.7694 20.5555C23.722 20.5359 23.6789 20.507 23.6426 20.4707L6.72074 3.54787C6.42868 3.25548 6.03268 3.09071 5.61941 3.08961C5.20614 3.08851 4.80927 3.25118 4.51566 3.54202C3.03617 5.00784 2.24613 7.07717 2.24613 9.52541C2.23636 13.5684 4.36136 18.2168 7.79203 21.6426L16.1368 29.9873C17.3228 31.171 18.9299 31.8358 20.6055 31.836C21.1397 31.8362 21.6717 31.7679 22.1885 31.6328C22.3183 31.5988 22.4518 31.5815 22.586 31.5811C22.9782 31.5811 23.356 31.7294 23.6436 31.9961L24.7559 33.0235C25.0428 33.3165 25.2039 33.71 25.2051 34.1201V34.6612C25.2023 35.891 25.6856 37.0722 26.5498 37.9473L35.3438 46.8897L35.3526 46.8994C36.3286 47.8754 37.6524 48.4236 39.0326 48.4235C40.4128 48.4234 41.7365 47.875 42.7124 46.8989C43.6884 45.9229 44.2366 44.5992 44.2365 43.2189C44.2364 41.8387 43.688 40.515 42.7119 39.5391L29.5303 26.3574C29.494 26.3212 29.4652 26.2781 29.4455 26.2307C29.4259 26.1832 29.4157 26.1324 29.4157 26.0811C29.4157 26.0297 29.4259 25.9789 29.4455 25.9315C29.4652 25.8841 29.494 25.841 29.5303 25.8047L33.0078 22.3272C33.153 22.1819 33.3253 22.0667 33.515 21.9882C33.7047 21.9096 33.908 21.8691 34.1133 21.8692H34.919Z" fill="#DD812C"/>
<path id="Vector_2" d="M20.6056 34.9611C18.104 34.9559 15.7053 33.9646 13.9298 32.2023L12.5763 30.8488C12.4298 30.7027 12.2314 30.6206 12.0245 30.6206C11.8177 30.6206 11.6192 30.7027 11.4728 30.8488L3.172 39.1066C1.6925 40.5861 1.16418 42.7638 1.89661 44.8966C1.9376 45.0168 1.9862 45.1342 2.04211 45.2482C3.02746 47.2658 4.93957 48.4376 7.03137 48.4376C7.75074 48.4394 8.46331 48.2984 9.1278 48.0228C9.79229 47.7472 10.3955 47.3425 10.9025 46.8322L21.9728 35.7091C22.0194 35.6616 22.055 35.6044 22.0773 35.5417C22.0996 35.479 22.1079 35.4121 22.1017 35.3458V35.3204C22.0973 35.2595 22.0807 35.2002 22.0528 35.1459C22.0249 35.0916 21.9863 35.0435 21.9393 35.0045C21.8923 34.9656 21.8379 34.9365 21.7794 34.9191C21.7208 34.9018 21.6594 34.8964 21.5988 34.9034C21.2689 34.94 20.9374 34.9593 20.6056 34.9611Z" fill="#DD812C"/>
</g>
</svg>
