<svg width="50" height="50" viewBox="0 0 50 50" fill="none" xmlns="http://www.w3.org/2000/svg">
<g id="fa6-solid:bowl-food">
<path id="Vector" d="M0 18.75C0 15.3027 2.80273 12.5 6.25 12.5H6.40625C7.12891 8.93555 10.2832 6.25 14.0625 6.25C15.5273 6.25 16.8945 6.65039 18.0566 7.34375C19.3555 4.84375 21.9824 3.125 25 3.125C28.0176 3.125 30.6445 4.84375 31.9434 7.34375C33.1055 6.65039 34.4727 6.25 35.9375 6.25C39.7168 6.25 42.8711 8.93555 43.5938 12.5H43.75C47.1973 12.5 50 15.3027 50 18.75C50 19.8926 49.6973 20.957 49.1602 21.875H0.839844C0.302734 20.957 0 19.8926 0 18.75ZM0 27.6758C0 26.2012 1.20117 25 2.67578 25H47.3242C48.7988 25 50 26.2012 50 27.6758C50 34.5605 45.6641 40.4395 39.5801 42.7246L39.4043 44.1406C39.209 45.7031 37.8809 46.875 36.2988 46.875H13.6914C12.1191 46.875 10.7812 45.7031 10.5859 44.1406L10.4102 42.7344C4.33594 40.4395 0 34.5605 0 27.6758Z" fill="#DD812C"/>
</g>
</svg>
